{
	"asset":{
		"generator":"Khronos glTF Blender I/O v3.6.28",
		"version":"2.0"
	},
	"scene":0,
	"scenes":[
		{
			"name":"Scene",
			"nodes":[
				0
			]
		}
	],
	"nodes":[
		{
			"mesh":0,
			"name":"ChuckMonkey"
		}
	],
	"materials":[
		{
			"doubleSided":true,
			"name":"material_0",
			"pbrMetallicRoughness":{}
		}
	],
	"meshes":[
		{
			"name":"Object_0",
			"primitives":[
				{
					"attributes":{
						"POSITION":0,
						"NORMAL":1,
						"TEXCOORD_0":2
					},
					"indices":3,
					"material":0
				}
			]
		}
	],
	"accessors":[
		{
			"bufferView":0,
			"componentType":5126,
			"count":11972,
			"max":[
				2.1216461658477783,
				10.159255981445312,
				0.9760627150535583
			],
			"min":[
				-2.1217427253723145,
				-0.031097041442990303,
				-0.8734002113342285
			],
			"type":"VEC3"
		},
		{
			"bufferView":1,
			"componentType":5126,
			"count":11972,
			"type":"VEC3"
		},
		{
			"bufferView":2,
			"componentType":5126,
			"count":11972,
			"type":"VEC2"
		},
		{
			"bufferView":3,
			"componentType":5123,
			"count":52890,
			"type":"SCALAR"
		}
	],
	"bufferViews":[
		{
			"buffer":0,
			"byteLength":143664,
			"byteOffset":0,
			"target":34962
		},
		{
			"buffer":0,
			"byteLength":143664,
			"byteOffset":143664,
			"target":34962
		},
		{
			"buffer":0,
			"byteLength":95776,
			"byteOffset":287328,
			"target":34962
		},
		{
			"buffer":0,
			"byteLength":105780,
			"byteOffset":383104,
			"target":34963
		}
	],
	"buffers":[
		{
			"byteLength":488884,
			"uri":"data:application/octet-stream;base64,"
		}
	]
}
